<mxfile host="app.diagrams.net" modified="2023-05-11T12:45:49.865Z" agent="Mozilla/5.0 (X11; Linux x86_64) AppleWebKit/537.36 (KHTML, like Gecko) Chrome/113.0.0.0 Safari/537.36" etag="276KxdMpfBMDFoSfdYyC" version="21.2.9" type="github">
  <diagram name="Страница 1" id="uwFEdxgpk832R23r9vTN">
    <mxGraphModel dx="683" dy="366" grid="1" gridSize="10" guides="1" tooltips="1" connect="1" arrows="1" fold="1" page="1" pageScale="1" pageWidth="827" pageHeight="1169" math="0" shadow="0">
      <root>
        <mxCell id="0" />
        <mxCell id="1" parent="0" />
        <mxCell id="uK35nHAd_BGC3GV_SIp5-1" value="" style="rounded=0;whiteSpace=wrap;html=1;" vertex="1" parent="1">
          <mxGeometry x="200" y="40" width="440" height="80" as="geometry" />
        </mxCell>
        <mxCell id="uK35nHAd_BGC3GV_SIp5-2" value="&lt;font style=&quot;font-size: 18px;&quot;&gt;Host OS, User Interface&lt;/font&gt;" style="text;html=1;strokeColor=none;fillColor=none;align=center;verticalAlign=middle;whiteSpace=wrap;rounded=0;" vertex="1" parent="1">
          <mxGeometry x="200" y="40" width="440" height="80" as="geometry" />
        </mxCell>
        <mxCell id="uK35nHAd_BGC3GV_SIp5-4" value="&lt;font style=&quot;font-size: 18px;&quot;&gt;kubectl&lt;/font&gt;" style="text;html=1;strokeColor=none;fillColor=none;align=center;verticalAlign=middle;whiteSpace=wrap;rounded=0;" vertex="1" parent="1">
          <mxGeometry x="380" y="130" width="150" height="60" as="geometry" />
        </mxCell>
        <mxCell id="uK35nHAd_BGC3GV_SIp5-5" value="" style="rounded=0;whiteSpace=wrap;html=1;" vertex="1" parent="1">
          <mxGeometry x="180" y="200" width="480" height="360" as="geometry" />
        </mxCell>
        <mxCell id="uK35nHAd_BGC3GV_SIp5-6" value="&lt;font color=&quot;#ff0000&quot; style=&quot;font-size: 18px;&quot;&gt;Master Node&lt;/font&gt;" style="text;html=1;strokeColor=none;fillColor=none;align=center;verticalAlign=middle;whiteSpace=wrap;rounded=0;" vertex="1" parent="1">
          <mxGeometry x="40" y="200" width="750" height="30" as="geometry" />
        </mxCell>
        <mxCell id="uK35nHAd_BGC3GV_SIp5-7" value="" style="rounded=0;whiteSpace=wrap;html=1;" vertex="1" parent="1">
          <mxGeometry x="200" y="240" width="440" height="60" as="geometry" />
        </mxCell>
        <mxCell id="uK35nHAd_BGC3GV_SIp5-8" value="&lt;font style=&quot;font-size: 18px;&quot;&gt;Kube API Server&lt;/font&gt;" style="text;html=1;strokeColor=none;fillColor=none;align=center;verticalAlign=middle;whiteSpace=wrap;rounded=0;" vertex="1" parent="1">
          <mxGeometry x="220" y="255" width="400" height="30" as="geometry" />
        </mxCell>
        <mxCell id="uK35nHAd_BGC3GV_SIp5-10" value="" style="endArrow=classic;startArrow=classic;html=1;rounded=0;exitX=0.5;exitY=1;exitDx=0;exitDy=0;fillColor=#f8cecc;strokeColor=#b85450;" edge="1" parent="1" source="uK35nHAd_BGC3GV_SIp5-2" target="uK35nHAd_BGC3GV_SIp5-7">
          <mxGeometry width="50" height="50" relative="1" as="geometry">
            <mxPoint x="410" y="330" as="sourcePoint" />
            <mxPoint x="460" y="280" as="targetPoint" />
          </mxGeometry>
        </mxCell>
        <mxCell id="uK35nHAd_BGC3GV_SIp5-11" value="" style="shape=parallelogram;perimeter=parallelogramPerimeter;whiteSpace=wrap;html=1;fixedSize=1;" vertex="1" parent="1">
          <mxGeometry x="360" y="320" width="280" height="40" as="geometry" />
        </mxCell>
        <mxCell id="uK35nHAd_BGC3GV_SIp5-12" value="" style="shape=parallelogram;perimeter=parallelogramPerimeter;whiteSpace=wrap;html=1;fixedSize=1;" vertex="1" parent="1">
          <mxGeometry x="320" y="380" width="320" height="40" as="geometry" />
        </mxCell>
        <mxCell id="uK35nHAd_BGC3GV_SIp5-13" value="" style="shape=parallelogram;perimeter=parallelogramPerimeter;whiteSpace=wrap;html=1;fixedSize=1;" vertex="1" parent="1">
          <mxGeometry x="280" y="440" width="360" height="40" as="geometry" />
        </mxCell>
        <mxCell id="uK35nHAd_BGC3GV_SIp5-14" value="&lt;font style=&quot;font-size: 18px;&quot;&gt;Volumes&lt;/font&gt;" style="text;html=1;strokeColor=none;fillColor=none;align=center;verticalAlign=middle;whiteSpace=wrap;rounded=0;" vertex="1" parent="1">
          <mxGeometry x="370" y="325" width="250" height="30" as="geometry" />
        </mxCell>
        <mxCell id="uK35nHAd_BGC3GV_SIp5-15" value="&lt;font style=&quot;font-size: 18px;&quot;&gt;Scheduler&lt;/font&gt;" style="text;html=1;strokeColor=none;fillColor=none;align=center;verticalAlign=middle;whiteSpace=wrap;rounded=0;" vertex="1" parent="1">
          <mxGeometry x="340" y="385" width="280" height="30" as="geometry" />
        </mxCell>
        <mxCell id="uK35nHAd_BGC3GV_SIp5-16" value="&lt;font style=&quot;font-size: 18px;&quot;&gt;Controllers&lt;/font&gt;" style="text;html=1;strokeColor=none;fillColor=none;align=center;verticalAlign=middle;whiteSpace=wrap;rounded=0;" vertex="1" parent="1">
          <mxGeometry x="290" y="445" width="330" height="30" as="geometry" />
        </mxCell>
        <mxCell id="uK35nHAd_BGC3GV_SIp5-17" value="" style="endArrow=classic;startArrow=classic;html=1;rounded=0;entryX=0.25;entryY=0;entryDx=0;entryDy=0;" edge="1" parent="1" target="uK35nHAd_BGC3GV_SIp5-11">
          <mxGeometry width="50" height="50" relative="1" as="geometry">
            <mxPoint x="430" y="300" as="sourcePoint" />
            <mxPoint x="390" y="390" as="targetPoint" />
          </mxGeometry>
        </mxCell>
        <mxCell id="uK35nHAd_BGC3GV_SIp5-18" value="" style="endArrow=classic;startArrow=classic;html=1;rounded=0;exitX=0.099;exitY=-0.011;exitDx=0;exitDy=0;exitPerimeter=0;entryX=0.347;entryY=1.012;entryDx=0;entryDy=0;entryPerimeter=0;" edge="1" parent="1" source="uK35nHAd_BGC3GV_SIp5-12" target="uK35nHAd_BGC3GV_SIp5-7">
          <mxGeometry width="50" height="50" relative="1" as="geometry">
            <mxPoint x="480" y="410" as="sourcePoint" />
            <mxPoint x="335" y="300" as="targetPoint" />
          </mxGeometry>
        </mxCell>
        <mxCell id="uK35nHAd_BGC3GV_SIp5-19" value="" style="endArrow=classic;startArrow=classic;html=1;rounded=0;entryX=0.069;entryY=-0.022;entryDx=0;entryDy=0;entryPerimeter=0;exitX=0.245;exitY=1.013;exitDx=0;exitDy=0;exitPerimeter=0;" edge="1" parent="1" source="uK35nHAd_BGC3GV_SIp5-7" target="uK35nHAd_BGC3GV_SIp5-13">
          <mxGeometry width="50" height="50" relative="1" as="geometry">
            <mxPoint x="430" y="330" as="sourcePoint" />
            <mxPoint x="480" y="280" as="targetPoint" />
          </mxGeometry>
        </mxCell>
        <mxCell id="uK35nHAd_BGC3GV_SIp5-20" value="" style="shape=parallelogram;perimeter=parallelogramPerimeter;whiteSpace=wrap;html=1;fixedSize=1;" vertex="1" parent="1">
          <mxGeometry x="240" y="500" width="390" height="40" as="geometry" />
        </mxCell>
        <mxCell id="uK35nHAd_BGC3GV_SIp5-21" value="&lt;font style=&quot;font-size: 18px;&quot;&gt;etcd&lt;/font&gt;" style="text;html=1;strokeColor=none;fillColor=none;align=center;verticalAlign=middle;whiteSpace=wrap;rounded=0;" vertex="1" parent="1">
          <mxGeometry x="270" y="505" width="330" height="30" as="geometry" />
        </mxCell>
        <mxCell id="uK35nHAd_BGC3GV_SIp5-22" value="" style="endArrow=classic;startArrow=classic;html=1;rounded=0;entryX=0.069;entryY=-0.022;entryDx=0;entryDy=0;entryPerimeter=0;exitX=0.169;exitY=1.009;exitDx=0;exitDy=0;exitPerimeter=0;" edge="1" parent="1" source="uK35nHAd_BGC3GV_SIp5-7">
          <mxGeometry width="50" height="50" relative="1" as="geometry">
            <mxPoint x="273" y="362" as="sourcePoint" />
            <mxPoint x="270" y="500" as="targetPoint" />
          </mxGeometry>
        </mxCell>
        <mxCell id="uK35nHAd_BGC3GV_SIp5-23" value="" style="endArrow=classic;startArrow=classic;html=1;rounded=0;entryX=0.05;entryY=1.029;entryDx=0;entryDy=0;entryPerimeter=0;fillColor=#f8cecc;strokeColor=#b85450;" edge="1" parent="1" target="uK35nHAd_BGC3GV_SIp5-7">
          <mxGeometry width="50" height="50" relative="1" as="geometry">
            <mxPoint x="220" y="801.3793103448276" as="sourcePoint" />
            <mxPoint x="530" y="360" as="targetPoint" />
          </mxGeometry>
        </mxCell>
        <mxCell id="uK35nHAd_BGC3GV_SIp5-24" value="" style="rounded=0;whiteSpace=wrap;html=1;" vertex="1" parent="1">
          <mxGeometry x="280" y="600" width="380" height="120" as="geometry" />
        </mxCell>
        <mxCell id="uK35nHAd_BGC3GV_SIp5-25" value="" style="endArrow=classic;html=1;rounded=0;entryX=0;entryY=0.5;entryDx=0;entryDy=0;fillColor=#f8cecc;strokeColor=#b85450;" edge="1" parent="1" target="uK35nHAd_BGC3GV_SIp5-24">
          <mxGeometry width="50" height="50" relative="1" as="geometry">
            <mxPoint x="220" y="660" as="sourcePoint" />
            <mxPoint x="530" y="590" as="targetPoint" />
          </mxGeometry>
        </mxCell>
        <mxCell id="uK35nHAd_BGC3GV_SIp5-26" value="&lt;font style=&quot;font-size: 18px;&quot; color=&quot;#ff0000&quot;&gt;Worker Node 1&lt;/font&gt;" style="text;html=1;strokeColor=none;fillColor=none;align=center;verticalAlign=middle;whiteSpace=wrap;rounded=0;" vertex="1" parent="1">
          <mxGeometry x="280" y="600" width="370" height="30" as="geometry" />
        </mxCell>
        <mxCell id="uK35nHAd_BGC3GV_SIp5-27" value="" style="rounded=0;whiteSpace=wrap;html=1;" vertex="1" parent="1">
          <mxGeometry x="440" y="630" width="90" height="80" as="geometry" />
        </mxCell>
        <mxCell id="uK35nHAd_BGC3GV_SIp5-28" value="Pod 1" style="text;html=1;strokeColor=none;fillColor=none;align=center;verticalAlign=middle;whiteSpace=wrap;rounded=0;" vertex="1" parent="1">
          <mxGeometry x="440" y="630" width="90" height="30" as="geometry" />
        </mxCell>
        <mxCell id="uK35nHAd_BGC3GV_SIp5-29" value="" style="rounded=0;whiteSpace=wrap;html=1;" vertex="1" parent="1">
          <mxGeometry x="560" y="630" width="90" height="80" as="geometry" />
        </mxCell>
        <mxCell id="uK35nHAd_BGC3GV_SIp5-30" value="Pod N" style="text;html=1;strokeColor=none;fillColor=none;align=center;verticalAlign=middle;whiteSpace=wrap;rounded=0;" vertex="1" parent="1">
          <mxGeometry x="560" y="630" width="90" height="30" as="geometry" />
        </mxCell>
        <mxCell id="uK35nHAd_BGC3GV_SIp5-31" value="Container 1" style="text;html=1;strokeColor=none;fillColor=none;align=center;verticalAlign=middle;whiteSpace=wrap;rounded=0;" vertex="1" parent="1">
          <mxGeometry x="440" y="650" width="90" height="30" as="geometry" />
        </mxCell>
        <mxCell id="uK35nHAd_BGC3GV_SIp5-32" value="Container N" style="text;html=1;strokeColor=none;fillColor=none;align=center;verticalAlign=middle;whiteSpace=wrap;rounded=0;" vertex="1" parent="1">
          <mxGeometry x="439" y="680" width="90" height="30" as="geometry" />
        </mxCell>
      </root>
    </mxGraphModel>
  </diagram>
</mxfile>
